<?xml version="1.0" encoding="UTF-8"?>
<svg width="49px" height="60px" viewBox="0 0 49 60" version="1.1" xmlns="http://www.w3.org/2000/svg" xmlns:xlink="http://www.w3.org/1999/xlink">
    <!-- Generator: Sketch 53 (72520) - https://sketchapp.com -->
    <title>icon_svg</title>
    <desc>Created with Sketch.</desc>
    <g id="Page-1" stroke="none" stroke-width="1" fill="none" fill-rule="evenodd">
        <g id="noun_SVG-File_115862" transform="translate(0.000000, -1.000000)" fill="#000000" fill-rule="nonzero">
            <g id="icon_svg" transform="translate(0.000000, 0.637820)">
                <path d="M4.48024,0.87992 C2.26934,0.87992 0.44904,2.66902 0.44904,4.87992 L0.44904,53.3174 C0.44904,55.5295 2.26934,57.3174 4.48024,57.3174 L8.23024,57.3174 L8.23024,57.8799 C8.23024,58.9846 9.12544,59.8799 10.23024,59.8799 L46.66774,59.8799 C47.77244,59.8799 48.66774,58.9846 48.66774,57.8799 L48.66774,44.6299 C48.66774,43.5251 47.77244,42.6299 46.66774,42.6299 L43.29274,42.6299 L43.29274,15.87995 C43.2907117,15.6078113 43.1778674,15.3482515 42.98024,15.16115 L37.85524,10.25495 L42.38644,5.72372 C42.6846232,5.48345006 42.8194285,5.09400675 42.7335961,4.72081022 C42.6477637,4.3476137 42.3563649,4.0561942 41.9831745,3.97033522 C41.609984,3.88447624 41.2205311,4.01925391 40.98024,4.31742 L36.41774,8.87995 L31.94904,4.56742 L33.63644,2.91112 C33.9575001,2.62932128 34.0641242,2.17470729 33.9018369,1.77954539 C33.7395495,1.38438349 33.3441852,1.13592896 32.91774,1.16112 C32.6565253,1.1714613 32.4097432,1.28367087 32.23024,1.47372 L30.48024,3.19242 L28.38644,1.16112 C28.201895,0.982628175 27.9557735,0.881945369 27.69904,0.87992 L4.48024,0.87992 L4.48024,0.87992 Z M4.48024,2.87992 L27.29274,2.87992 L29.07404,4.56742 L22.91774,10.59875 C22.9071814,10.6088556 22.8968456,10.6191914 22.88674,10.62975 C22.8761814,10.6398556 22.8658456,10.6501914 22.85574,10.66075 C22.6866522,10.7959678 22.5660101,10.9824051 22.51194,11.19205 L20.23074,19.37955 C20.1365864,19.7293305 20.2389279,20.1026815 20.4982802,20.3555604 C20.7576325,20.6084392 21.1334506,20.701313 21.48074,20.59835 L29.54324,18.25455 C29.699312,18.2375444 29.8491883,18.1840343 29.98074,18.09835 C29.9912986,18.0882444 30.0016344,18.0779086 30.01174,18.06735 C30.0222986,18.0572444 30.0326344,18.0469086 30.04274,18.03635 C30.0532986,18.0262444 30.0636344,18.0159086 30.07374,18.00535 C30.0947587,17.9957362 30.1154378,17.9853967 30.13574,17.97435 C30.182528,17.9265606 30.2244043,17.8741985 30.26074,17.81805 L36.44834,11.66175 L41.29204,16.28675 L41.29204,42.6305 L10.22954,42.6305 C9.12474,42.6305 8.22954,43.5257 8.22954,44.6305 L8.22954,55.318 L4.47954,55.318 C3.35044,55.318 2.44834,54.4496 2.44834,53.318 L2.44834,4.88052 C2.44834,3.75162 3.35044,2.88052 4.47954,2.88052 L4.48024,2.87992 Z M30.51144,5.97375 L35.01144,10.28615 L29.44904,15.84875 L25.04274,11.31745 L30.51144,5.97375 L30.51144,5.97375 Z M24.04274,13.16115 L27.57404,16.75495 L22.66774,18.16115 L24.04274,13.16115 Z M19.60524,21.16115 C19.1396314,21.2654487 18.812549,21.6841411 18.82404,22.16115 L18.82404,23.59875 L9.88644,23.59875 C9.59074,22.32855 8.45674,21.34875 7.10524,21.34875 C5.53454,21.34875 4.23024,22.65295 4.23024,24.22375 C4.23024,25.79445 5.53454,27.0674 7.10524,27.0674 C8.54534,27.0674 9.75664,25.98735 9.94904,24.59875 L16.51144,24.59875 C14.41824,25.58125 12.70884,27.0439 11.41774,28.6611 C9.12994,31.527 8.01744,34.7079 8.38644,37.0049 L10.35524,36.6924 C10.15944,35.4726 10.98014,32.4166 12.98024,29.9111 C14.40684,28.1242 16.35764,26.5958 18.82404,25.84875 L18.82404,26.2861 C18.8240952,26.8383619 19.2717781,27.2860448 19.82404,27.2861 L23.94904,27.2861 C24.5013019,27.2860448 24.9489848,26.8383619 24.94904,26.2861 L24.94904,25.66115 C27.61454,26.2566 29.69524,27.6482 31.23024,29.3487 C33.28484,31.6246 34.32404,34.5014 34.32404,36.4111 L36.32404,36.4111 C36.32404,33.8375 35.10664,30.6375 32.73024,28.0049 C31.49454,26.636 29.90054,25.43775 28.01144,24.59875 L33.82404,24.59875 C34.01614,25.98735 35.22754,27.0674 36.66774,27.0674 C38.23854,27.0674 39.51144,25.79445 39.51144,24.22375 C39.51144,22.65295 38.23854,21.34875 36.66774,21.34875 C35.31654,21.34875 34.18244,22.32885 33.88644,23.59875 L24.94904,23.59875 L24.94904,22.16115 C24.9489848,21.6088881 24.5013019,21.1612052 23.94904,21.16115 L19.82404,21.16115 C19.7513262,21.1531479 19.6779538,21.1531479 19.60524,21.16115 L19.60524,21.16115 Z M20.82404,23.16115 L22.94904,23.16115 L22.94904,25.28615 L20.82404,25.28615 L20.82404,23.16115 Z M7.10524,23.34875 C7.59514,23.34875 7.98024,23.73395 7.98024,24.22375 C7.98024,24.71365 7.59514,25.06745 7.10524,25.06745 C6.61554,25.06745 6.23024,24.71365 6.23024,24.22375 C6.23024,23.73395 6.61554,23.34875 7.10524,23.34875 Z M36.66774,23.34875 C37.15764,23.34875 37.51144,23.73395 37.51144,24.22375 C37.51144,24.71365 37.15764,25.06745 36.66774,25.06745 C36.17804,25.06745 35.79274,24.71365 35.79274,24.22375 C35.79274,23.73395 36.17804,23.34875 36.66774,23.34875 Z M19.44904,47.3174 C20.41364,47.3174 21.14894,47.5195 21.63644,47.9424 C22.12404,48.3654 22.39334,48.9238 22.41774,49.6299 L20.85524,49.7239 C20.78924,49.3289 20.63624,49.0218 20.41774,48.8489 C20.19934,48.6758 19.88564,48.5989 19.44904,48.5989 C18.99794,48.5989 18.64194,48.6949 18.38644,48.8801 C18.22244,48.999 18.13644,49.1495 18.13644,49.3489 C18.13644,49.5306 18.20144,49.6883 18.35524,49.8176 C18.55104,49.9819 19.03774,50.1704 19.79274,50.3489 C20.54784,50.5272 21.11844,50.6896 21.48024,50.8801 C21.84204,51.0706 22.11924,51.331 22.32404,51.6613 C22.52844,51.9919 22.63644,52.4256 22.63644,52.9113 C22.63644,53.3517 22.50624,53.7456 22.26144,54.1301 C22.01694,54.5146 21.67764,54.8181 21.23024,55.0051 C20.78284,55.1921 20.21034,55.2863 19.54274,55.2863 C18.57094,55.2863 17.81364,55.0481 17.29274,54.5989 C16.77194,54.1496 16.48804,53.49 16.38644,52.6301 L17.88644,52.4739 C17.97744,52.9807 18.17094,53.3611 18.44904,53.5989 C18.72694,53.8364 19.10194,53.9739 19.57404,53.9739 C20.07384,53.9739 20.44524,53.8416 20.69904,53.6301 C20.95244,53.4187 21.07404,53.1947 21.07404,52.9113 C21.07404,52.7296 21.02504,52.5702 20.91774,52.4426 C20.81114,52.315 20.62084,52.1931 20.35524,52.0989 C20.17344,52.0359 19.75194,51.9159 19.10524,51.7551 C18.27324,51.5489 17.69074,51.3058 17.35524,51.0051 C16.88334,50.5822 16.63644,50.0821 16.63644,49.4739 C16.63644,49.0823 16.75824,48.6896 16.98024,48.3489 C17.20214,48.0081 17.53134,47.7772 17.94904,47.5989 C18.36654,47.4204 18.85824,47.3176 19.44904,47.3176 L19.44904,47.3174 Z M34.66774,47.3174 C35.62204,47.3174 36.35014,47.5109 36.88644,47.9111 C37.42304,48.3115 37.79504,48.8613 37.94904,49.5674 L36.38644,49.8799 C36.27824,49.5024 36.09154,49.1919 35.79274,48.9737 C35.49384,48.7552 35.11514,48.6299 34.66774,48.6299 C33.98964,48.6299 33.44304,48.8562 33.04274,49.2861 C32.64254,49.7163 32.44904,50.3465 32.44904,51.1924 C32.44904,52.1048 32.63724,52.7988 33.04274,53.2549 C33.44824,53.7111 33.97924,53.9424 34.63644,53.9424 C34.96174,53.9424 35.30954,53.8824 35.63644,53.7549 C35.96344,53.6273 36.24604,53.4681 36.48024,53.2861 L36.48024,52.3174 L34.69904,52.3174 L34.69904,51.0049 L38.04274,51.0049 L38.04274,54.0674 C37.71764,54.382 37.22224,54.672 36.60524,54.9111 C35.98824,55.1507 35.36294,55.2549 34.73024,55.2549 C33.92624,55.2549 33.23444,55.0922 32.63644,54.7549 C32.03864,54.4176 31.59344,53.9449 31.29274,53.3174 C30.99214,52.69 30.85524,51.9924 30.85524,51.2549 C30.85524,50.4544 31.01964,49.7521 31.35524,49.1299 C31.69084,48.5077 32.17724,48.0245 32.82404,47.6924 C33.31664,47.4373 33.93364,47.3174 34.66774,47.3174 L34.66774,47.3174 Z M23.16774,47.4424 L24.82404,47.4424 L26.79274,53.1299 L28.66774,47.4424 L30.32404,47.4424 L27.54274,55.1299 L25.88644,55.1299 L23.16774,47.4424 L23.16774,47.4424 Z M13.79274,53.6611 L15.26144,53.6611 L15.26144,55.1299 L13.79274,55.1299 L13.79274,53.6611 Z" id="Shape"></path>
            </g>
        </g>
    </g>
</svg>