<?xml version="1.0" encoding="UTF-8"?>
<svg width="326px" height="139px" viewBox="0 0 326 139" version="1.1" xmlns="http://www.w3.org/2000/svg" xmlns:xlink="http://www.w3.org/1999/xlink">
    <!-- Generator: Sketch 53.2 (72643) - https://sketchapp.com -->
    <title>Logo/web logo 3D</title>
    <desc>Created with Sketch.</desc>
    <g id="Logo/web-logo-3D" stroke="none" stroke-width="1" fill="none" fill-rule="evenodd">
        <g>
            <polyline id="Fill-1" fill="#4D4D4D" points="85.994 0.001 166.98 139 205 139 122 0.001 85.994 0.001"></polyline>
            <polyline id="Fill-2" fill="#E1E0EC" points="118.691 0.001 71 82.931 71 31.001 35 31.001 35 139 72.957 139 122 55.094 122 139 156 139 156 56.939 122 0.001 118.691 0.001"></polyline>
            <polyline id="Fill-3" fill="#4D4D4D" points="172 0.001 172 78.972 208 138.221 208 55.091 255.29 139 293.001 139 293.001 38.001 257.001 38.001 257.001 82.929 209.553 0.001 172 0.001"></polyline>
            <polyline id="Fill-4" fill="#E1E0EC" points="205 0.001 205 80.361 240 139 240 55.091 287.734 139 326 139 326 38.001 289 38.001 289 82.929 241.998 0.001 205 0.001"></polyline>
            <polyline id="Fill-5" fill="#CBE021" points="122.001 0.001 205 139 240 139 157.033 0.001 122.001 0.001"></polyline>
            <polyline id="Fill-6" fill="#4D4D4D" points="83.836 0.001 36 82.931 36 31.001 0 31.001 0 139 38.102 139 87 55.094 87 139 122 139 122 0.001 83.836 0.001"></polyline>
        </g>
    </g>
</svg>